<svg width="124" height="87" xmlns="http://www.w3.org/2000/svg"><style/><path fill="none" id="canvas_background" d="M-1-1h126v89H-1z"/><g stroke="null" id="svg_1"><path id="svg_2" d="M119.9 14.3c-1.4-5.2-5.5-9.3-10.7-10.7C99.7 1 61.7 1 61.7 1s-38 0-47.5 2.5C9.1 4.9 4.9 9.1 3.5 14.3 1 23.8 1 43.5 1 43.5s0 19.8 2.5 29.2C4.9 77.9 9 82 14.2 83.4 23.8 86 61.7 86 61.7 86s38 0 47.5-2.5c5.2-1.4 9.3-5.5 10.7-10.7 2.5-9.5 2.5-29.2 2.5-29.2s.1-19.8-2.5-29.3z" fill="red"/><path id="svg_3" fill="#fff" d="M49.6 61.7l31.6-18.2-31.6-18.2z"/></g></svg>