<svg aria-hidden="true" style="position: absolute; width: 0; height: 0; overflow: hidden;" version="1.1" xmlns="http://www.w3.org/2000/svg" xmlns:xlink="http://www.w3.org/1999/xlink">
  <defs>
    <symbol id="icon-menu" viewBox="0 0 32 32">
      <title>menu</title>
      <path
        d="M30.707 14.707h-29.415c-0.714 0-1.293 0.579-1.293 1.293s0.579 1.293 1.293 1.293h29.415c0.714 0 1.293-0.579 1.293-1.293s-0.579-1.293-1.293-1.293zM30.707 4.902h-29.415c-0.714 0-1.293 0.579-1.293 1.293s0.579 1.293 1.293 1.293h29.415c0.714 0 1.293-0.579 1.293-1.293s-0.579-1.293-1.293-1.293zM30.707 24.512h-29.415c-0.714 0-1.293 0.579-1.293 1.293s0.579 1.293 1.293 1.293h29.415c0.714 0 1.293-0.579 1.293-1.293s-0.579-1.293-1.293-1.293z"></path>
    </symbol>
    <symbol id="icon-down-chevron" viewBox="0 0 32 32">
      <title>down-chevron</title>
      <path
        d="M16 24.926c-0.475 0-0.948-0.18-1.311-0.542l-14.146-14.146c-0.724-0.725-0.724-1.898 0-2.621 0.724-0.725 1.897-0.725 2.621 0l12.836 12.835 12.836-12.835c0.724-0.725 1.897-0.725 2.621 0s0.724 1.896 0 2.621l-14.147 14.146c-0.362 0.362-0.836 0.542-1.31 0.542z"></path>
    </symbol>
    <symbol id="icon-information" viewBox="0 0 32 32">
      <title>information</title>
      <path
        d="M14.186 10.442c0.059 0.117 0.117 0.234 0.175 0.322s0.146 0.175 0.205 0.263c0.088 0.088 0.175 0.175 0.293 0.263 0.088 0.059 0.205 0.146 0.351 0.175 0.117 0.059 0.234 0.088 0.38 0.117s0.263 0.029 0.38 0.029c0.117 0 0.263 0 0.38-0.029s0.234-0.059 0.322-0.117h0.029c0.117-0.059 0.234-0.117 0.351-0.205 0.088-0.059 0.175-0.146 0.263-0.234l0.029-0.029c0.088-0.088 0.146-0.175 0.205-0.263s0.117-0.175 0.146-0.293c0-0.029 0-0.029 0.029-0.059 0.058-0.117 0.088-0.263 0.117-0.38s0.029-0.263 0.029-0.38 0-0.263-0.029-0.38-0.058-0.234-0.117-0.38c-0.088-0.205-0.205-0.38-0.351-0.527-0.029-0.029-0.029-0.029-0.058-0.059-0.088-0.088-0.175-0.146-0.293-0.234-0.117-0.059-0.205-0.117-0.322-0.175s-0.234-0.088-0.351-0.117c-0.146-0.029-0.263-0.029-0.38-0.029s-0.263 0-0.38 0.029c-0.117 0.029-0.234 0.059-0.351 0.117h-0.029c-0.117 0.059-0.234 0.117-0.322 0.175-0.117 0.088-0.205 0.146-0.293 0.234s-0.175 0.175-0.234 0.263c-0.059 0.088-0.117 0.205-0.175 0.322s-0.088 0.234-0.117 0.351c-0.029 0.146-0.029 0.263-0.029 0.38s0 0.263 0.029 0.38c0.029 0.234 0.088 0.351 0.117 0.468z"></path>
      <path
        d="M18.252 21.148h-0.673v-7.166c0-0.409-0.322-0.761-0.761-0.761h-3.071c-0.409 0-0.761 0.322-0.761 0.761v1.58c0 0.409 0.322 0.761 0.761 0.761h0.614v4.856h-0.614c-0.409 0-0.761 0.322-0.761 0.761v1.58c0 0.41 0.322 0.761 0.761 0.761h4.505c0.41 0 0.761-0.322 0.761-0.761v-1.58c0-0.439-0.351-0.79-0.761-0.79z"></path>
      <path d="M16 0c-8.834 0-16 7.166-16 16s7.166 16 16 16 16-7.166 16-16-7.166-16-16-16zM16 29.894c-7.664 0-13.894-6.23-13.894-13.894s6.23-13.894 13.894-13.894 13.894 6.23 13.894 13.894-6.23 13.894-13.894 13.894z"></path>
    </symbol>
    <symbol id="icon-round-account-button-with-user-inside" viewBox="0 0 32 32">
      <title>round-account-button-with-user-inside</title>
      <path
        d="M16 0c-8.8 0-16 7.2-16 16s7.2 16 16 16 16-7.2 16-16-7.2-16-16-16zM16 4.8c2.72 0 4.8 2.080 4.8 4.8s-2.080 4.8-4.8 4.8c-2.72 0-4.8-2.080-4.8-4.8s2.080-4.8 4.8-4.8zM16 27.52c-4 0-7.52-2.080-9.6-5.12 0-3.2 6.4-4.96 9.6-4.96s9.6 1.76 9.6 4.96c-2.080 3.040-5.6 5.12-9.6 5.12z"></path>
    </symbol>
  </defs>
</svg>
