<svg width="124" height="87" xmlns="http://www.w3.org/2000/svg">
 <style type="text/css">.st0{fill: #FF0000;}
	
  .st1{fill: #FFFFFF;}
	
  .st2{fill: #282828;}</style>

 <g>
  <title>background</title>
  <rect fill="none" id="canvas_background" height="89" width="126" y="-1" x="-1"/>
 </g>
 <g>
  <title>Layer 1</title>
  <g stroke="null" id="svg_1">
   <path stroke="null" id="svg_2" d="m119.9,14.3c-1.4,-5.2 -5.5,-9.3 -10.7,-10.7c-9.5,-2.6 -47.5,-2.6 -47.5,-2.6s-38,0 -47.5,2.5c-5.1,1.4 -9.3,5.6 -10.7,10.8c-2.5,9.5 -2.5,29.2 -2.5,29.2s0,19.8 2.5,29.2c1.4,5.2 5.5,9.3 10.7,10.7c9.6,2.6 47.5,2.6 47.5,2.6s38,0 47.5,-2.5c5.2,-1.4 9.3,-5.5 10.7,-10.7c2.5,-9.5 2.5,-29.2 2.5,-29.2s0.1,-19.8 -2.5,-29.3z" class="st0"/>
   <polygon stroke="null" id="svg_3" points="49.599998474121094,61.70000076293945 81.19999694824219,43.5 49.599998474121094,25.299999237060547 " class="st1"/>
  </g>
 </g>
</svg>